<svg xmlns="http://www.w3.org/2000/svg" width="176" height="41" viewBox="0 0 176 41" fill="none"><g clip-path="url(#clip0_160_98175)"><path d="M50.1768 29.725H61.7935V26.4115H53.7191V10.9395H50.1768V29.725Z" fill="white"></path><path d="M68.7743 30.1163C70.1809 30.1163 71.4181 29.8032 72.4859 29.177C73.5625 28.5422 74.4003 27.6681 74.9995 26.555C75.6072 25.433 75.9111 24.1415 75.9111 22.6805C75.9111 21.2281 75.6115 19.9453 75.0125 18.832C74.4133 17.7102 73.5755 16.8317 72.4989 16.1968C71.4311 15.562 70.1896 15.2445 68.7743 15.2445C67.3851 15.2445 66.1566 15.5577 65.0887 16.1838C64.0209 16.81 63.183 17.684 62.5752 18.806C61.9675 19.9191 61.6636 21.2106 61.6636 22.6805C61.6636 24.1328 61.9588 25.42 62.5492 26.5419C63.1482 27.6551 63.9818 28.5291 65.0496 29.164C66.1176 29.7989 67.3591 30.1163 68.7743 30.1163ZM68.7743 26.8028C67.6716 26.8028 66.8339 26.4332 66.2609 25.694C65.6964 24.946 65.4143 23.9415 65.4143 22.6805C65.4143 21.4542 65.6834 20.4627 66.2218 19.706C66.7687 18.9408 67.6195 18.558 68.7743 18.558C69.8943 18.558 70.7365 18.9321 71.3008 19.68C71.8738 20.4279 72.1603 21.428 72.1603 22.6805C72.1603 23.8894 71.8782 24.8807 71.3138 25.6548C70.7582 26.4201 69.9116 26.8028 68.7743 26.8028Z" fill="white"></path><path d="M82.9162 30.1163C83.5761 30.1163 84.1838 30.038 84.7395 29.8815C85.3038 29.725 85.8161 29.5032 86.2762 29.2162V30.6382C86.2936 31.16 86.159 31.5948 85.8724 31.9427C85.5946 32.2993 85.2214 32.5646 84.7525 32.7385C84.2836 32.9212 83.7844 33.0125 83.2549 33.0125C82.7599 33.0125 82.2998 32.9037 81.8744 32.6863C81.4576 32.4689 81.1363 32.1515 80.9106 31.734L77.6288 33.3255C78.167 34.2387 78.9354 34.9736 79.9339 35.5302C80.9324 36.0955 82.0306 36.3782 83.2288 36.3782C84.2619 36.3782 85.2214 36.239 86.1069 35.9607C86.9925 35.6911 87.7392 35.278 88.3469 34.7214C88.9633 34.1648 89.3845 33.456 89.6102 32.595C89.6883 32.2906 89.7404 31.9818 89.7664 31.6687C89.8011 31.3644 89.8185 31.0382 89.8185 30.6903V15.6359H86.719V16.4187C86.2414 16.0446 85.6988 15.7576 85.0911 15.5577C84.492 15.3489 83.8279 15.2445 83.0985 15.2445C81.7528 15.2445 80.5807 15.5664 79.5823 16.2099C78.5838 16.8535 77.8067 17.7362 77.2511 18.8582C76.7041 19.9713 76.4307 21.2455 76.4307 22.6805C76.4307 24.0893 76.6998 25.3547 77.2381 26.4767C77.785 27.5985 78.5447 28.4857 79.5171 29.138C80.4895 29.7902 81.6226 30.1163 82.9162 30.1163ZM83.4892 26.9593C82.7252 26.9593 82.1001 26.768 81.6139 26.3853C81.1277 26.0027 80.7673 25.4896 80.533 24.846C80.2986 24.1937 80.1813 23.4719 80.1813 22.6805C80.1813 21.8977 80.3029 21.1846 80.546 20.541C80.7891 19.8887 81.1624 19.3713 81.6659 18.9885C82.1782 18.5972 82.8294 18.4015 83.6194 18.4015C84.7308 18.4015 85.5252 18.7973 86.0027 19.5887C86.4803 20.3714 86.719 21.402 86.719 22.6805C86.719 23.9589 86.4759 24.9938 85.9897 25.7852C85.5122 26.568 84.6787 26.9593 83.4892 26.9593Z" fill="white"></path><path d="M98.2323 30.1163C99.6389 30.1163 100.876 29.8032 101.944 29.177C103.02 28.5422 103.858 27.6681 104.457 26.555C105.065 25.433 105.369 24.1415 105.369 22.6805C105.369 21.2281 105.07 19.9453 104.47 18.832C103.872 17.7102 103.034 16.8317 101.957 16.1968C100.889 15.562 99.6475 15.2445 98.2323 15.2445C96.8431 15.2445 95.6146 15.5577 94.5467 16.1838C93.4789 16.81 92.641 17.684 92.0332 18.806C91.4255 19.9191 91.1216 21.2106 91.1216 22.6805C91.1216 24.1328 91.4168 25.42 92.0072 26.5419C92.6062 27.6551 93.4398 28.5291 94.5076 29.164C95.5756 29.7989 96.8171 30.1163 98.2323 30.1163ZM98.2323 26.8028C97.1296 26.8028 96.2918 26.4332 95.7188 25.694C95.1544 24.946 94.8723 23.9415 94.8723 22.6805C94.8723 21.4542 95.1414 20.4627 95.6798 19.706C96.2267 18.9408 97.0775 18.558 98.2323 18.558C99.3523 18.558 100.194 18.9321 100.759 19.68C101.332 20.4279 101.618 21.428 101.618 22.6805C101.618 23.8894 101.336 24.8807 100.772 25.6548C100.216 26.4201 99.3696 26.8028 98.2323 26.8028Z" fill="white"></path><path d="M106.93 13.679H110.473V10.5482H106.93V13.679ZM106.93 29.725H110.473V15.6359H106.93V29.725Z" fill="white"></path><path d="M112.789 35.9868H116.357V29.2162C116.817 29.5032 117.325 29.725 117.88 29.8815C118.445 30.038 119.057 30.1163 119.717 30.1163C121.01 30.1163 122.144 29.7902 123.116 29.138C124.088 28.4857 124.844 27.5985 125.382 26.4767C125.929 25.3547 126.202 24.0893 126.202 22.6805C126.202 21.2455 125.925 19.9713 125.37 18.8582C124.822 17.7362 124.05 16.8535 123.051 16.2099C122.052 15.5664 120.88 15.2445 119.535 15.2445C118.805 15.2445 118.137 15.3489 117.529 15.5577C116.93 15.7576 116.391 16.0446 115.915 16.4187V15.6359H112.789V35.9868ZM119.144 26.9593C117.963 26.9593 117.13 26.568 116.643 25.7852C116.157 24.9938 115.915 23.9589 115.915 22.6805C115.915 21.402 116.153 20.3714 116.631 19.5887C117.117 18.7973 117.911 18.4015 119.014 18.4015C119.804 18.4015 120.451 18.5972 120.954 18.9885C121.467 19.3713 121.844 19.8887 122.087 20.541C122.33 21.1846 122.452 21.8977 122.452 22.6805C122.452 23.4719 122.335 24.1937 122.1 24.846C121.866 25.4896 121.506 26.0027 121.02 26.3853C120.534 26.768 119.908 26.9593 119.144 26.9593Z" fill="white"></path><path d="M132.62 30.1163C134.46 30.1163 135.902 29.7033 136.943 28.877C137.985 28.0508 138.506 26.9159 138.506 25.4722C138.506 24.3763 138.167 23.511 137.491 22.8762C136.821 22.2413 135.685 21.715 134.078 21.2977C132.984 21.0193 132.168 20.7932 131.629 20.6192C131.1 20.4454 130.748 20.2757 130.574 20.1105C130.41 19.9453 130.328 19.7409 130.328 19.4973C130.328 19.0886 130.522 18.7755 130.913 18.558C131.313 18.3406 131.838 18.2537 132.489 18.2972C133.869 18.4015 134.626 18.9929 134.755 20.0713L138.376 19.419C138.194 18.1407 137.568 17.1274 136.5 16.3795C135.433 15.6228 134.07 15.2445 132.411 15.2445C130.71 15.2445 129.351 15.6446 128.335 16.4447C127.319 17.2448 126.811 18.3232 126.811 19.68C126.811 20.7584 127.163 21.6107 127.866 22.2369C128.569 22.8544 129.78 23.3849 131.499 23.8285C132.516 24.0981 133.262 24.3155 133.739 24.4807C134.225 24.6459 134.539 24.8156 134.677 24.9895C134.816 25.1547 134.885 25.3765 134.885 25.6548C134.885 26.0983 134.711 26.4462 134.365 26.6985C134.018 26.9419 133.522 27.0637 132.88 27.0637C132.098 27.0637 131.451 26.8767 130.94 26.5027C130.436 26.1288 130.11 25.6114 129.963 24.9503L126.342 25.4982C126.577 26.9681 127.237 28.1073 128.322 28.9162C129.416 29.7163 130.849 30.1163 132.62 30.1163Z" fill="white"></path><path d="M145.04 30.1425C146.056 30.1425 146.942 29.9728 147.698 29.6337C148.453 29.2945 149.086 28.8423 149.599 28.277V29.725H152.724V15.6359H149.156V22.7848C149.156 23.6545 149.056 24.3589 148.856 24.8982C148.666 25.4287 148.418 25.8331 148.114 26.1114C147.81 26.381 147.485 26.5636 147.137 26.6593C146.79 26.755 146.465 26.8028 146.161 26.8028C145.406 26.8028 144.819 26.6332 144.403 26.294C143.995 25.9548 143.699 25.5331 143.517 25.0287C143.335 24.5242 143.226 24.0242 143.191 23.5284C143.157 23.024 143.139 22.6109 143.139 22.289V15.6359H139.544V23.5415C139.544 23.7762 139.562 24.1502 139.597 24.6633C139.631 25.1765 139.732 25.7462 139.896 26.3723C140.061 26.9898 140.334 27.5855 140.717 28.1595C141.108 28.7335 141.65 29.2075 142.345 29.5815C143.039 29.9554 143.938 30.1425 145.04 30.1425Z" fill="white"></path><path d="M154.775 29.725H158.343V21.1932C158.343 20.3845 158.565 19.7279 159.008 19.2234C159.459 18.7102 160.053 18.4537 160.792 18.4537C161.565 18.4537 162.168 18.7147 162.602 19.2365C163.044 19.7496 163.266 20.4714 163.266 21.402V29.725H166.809V21.1932C166.809 20.3845 167.03 19.7279 167.473 19.2234C167.924 18.7102 168.519 18.4537 169.257 18.4537C170.03 18.4537 170.633 18.7147 171.067 19.2365C171.51 19.7496 171.732 20.4714 171.732 21.402V29.725H175.273V20.4627C175.273 18.9233 174.861 17.6797 174.036 16.7317C173.221 15.7751 172.009 15.2967 170.403 15.2967C169.5 15.2967 168.671 15.4924 167.915 15.8837C167.16 16.2752 166.557 16.81 166.105 17.4883C165.741 16.8274 165.22 16.2969 164.542 15.8968C163.865 15.4968 163.023 15.2967 162.016 15.2967C161.165 15.2967 160.384 15.4663 159.672 15.8055C158.959 16.136 158.369 16.5926 157.9 17.1752V15.6359H154.775V29.725Z" fill="white"></path><path d="M20.4651 0C9.16254 0 0 9.17816 0 20.5C11.3026 20.5 20.4651 11.3218 20.4651 0Z" fill="white"></path><path d="M20.4653 41C31.7679 41 40.9304 31.8218 40.9304 20.5C29.6279 20.5 20.4653 29.6782 20.4653 41Z" fill="white"></path><path d="M20.4653 0C31.7679 0 40.9304 9.17816 40.9304 20.5C29.6279 20.5 20.4653 11.3218 20.4653 0Z" fill="white"></path><path d="M20.4651 41C9.16254 41 -9.88102e-07 31.8218 0 20.5C11.3026 20.5 20.4651 29.6782 20.4651 41Z" fill="white"></path></g><defs><clipPath id="clip0_160_98175"><rect width="176" height="41" fill="white"></rect></clipPath></defs></svg>