<svg xmlns="http://www.w3.org/2000/svg" width="170" height="41" viewBox="0 0 170 41" fill="none"><g clip-path="url(#clip0_160_98142)"><path d="M51.8599 28.138H63.8119V24.538H56.1079V10.978H51.8599V28.138Z" fill="white"></path><path d="M70.8933 25.738C69.1893 25.738 68.3013 24.25 68.3013 22.018C68.3013 19.786 69.1893 18.274 70.8933 18.274C72.5973 18.274 73.5093 19.786 73.5093 22.018C73.5093 24.25 72.5973 25.738 70.8933 25.738ZM70.9173 28.522C74.8773 28.522 77.4693 25.714 77.4693 22.018C77.4693 18.322 74.8773 15.514 70.9173 15.514C66.9813 15.514 64.3413 18.322 64.3413 22.018C64.3413 25.714 66.9813 28.522 70.9173 28.522Z" fill="white"></path><path d="M84.3236 32.386C86.1476 32.386 87.7556 31.978 88.8356 31.018C89.8196 30.13 90.4676 28.786 90.4676 26.938V15.85H86.7236V17.17H86.6756C85.9556 16.138 84.8516 15.49 83.2196 15.49C80.1716 15.49 78.0596 18.034 78.0596 21.634C78.0596 25.402 80.6276 27.466 83.3876 27.466C84.8756 27.466 85.8116 26.866 86.5316 26.05H86.6276V27.274C86.6276 28.762 85.9316 29.626 84.2756 29.626C82.9796 29.626 82.3316 29.074 82.1156 28.426H78.3236C78.7076 30.994 80.9396 32.386 84.3236 32.386ZM84.2996 24.562C82.8356 24.562 81.8756 23.362 81.8756 21.514C81.8756 19.642 82.8356 18.442 84.2996 18.442C85.9316 18.442 86.7956 19.834 86.7956 21.49C86.7956 23.218 86.0036 24.562 84.2996 24.562Z" fill="white"></path><path d="M98.1658 25.738C96.4618 25.738 95.5738 24.25 95.5738 22.018C95.5738 19.786 96.4618 18.274 98.1658 18.274C99.8698 18.274 100.782 19.786 100.782 22.018C100.782 24.25 99.8698 25.738 98.1658 25.738ZM98.1898 28.522C102.15 28.522 104.742 25.714 104.742 22.018C104.742 18.322 102.15 15.514 98.1898 15.514C94.2538 15.514 91.6138 18.322 91.6138 22.018C91.6138 25.714 94.2538 28.522 98.1898 28.522Z" fill="white"></path><path d="M105.884 28.138H109.796V15.85H105.884V28.138ZM105.884 14.146H109.796V10.978H105.884V14.146Z" fill="white"></path><path d="M111.494 32.194H115.406V26.866H115.454C116.222 27.898 117.35 28.522 118.934 28.522C122.15 28.522 124.286 25.978 124.286 21.994C124.286 18.298 122.294 15.49 119.03 15.49C117.35 15.49 116.15 16.234 115.31 17.338H115.238V15.85H111.494V32.194ZM117.926 25.498C116.246 25.498 115.286 24.13 115.286 22.138C115.286 20.146 116.15 18.634 117.854 18.634C119.534 18.634 120.326 20.026 120.326 22.138C120.326 24.226 119.414 25.498 117.926 25.498Z" fill="white"></path><path d="M130.655 28.522C133.871 28.522 136.247 27.13 136.247 24.442C136.247 21.298 133.703 20.746 131.543 20.386C129.983 20.098 128.591 19.978 128.591 19.114C128.591 18.346 129.335 17.986 130.295 17.986C131.375 17.986 132.119 18.322 132.263 19.426H135.863C135.671 17.002 133.799 15.49 130.319 15.49C127.415 15.49 125.015 16.834 125.015 19.426C125.015 22.306 127.295 22.882 129.431 23.242C131.063 23.53 132.551 23.65 132.551 24.754C132.551 25.546 131.807 25.978 130.631 25.978C129.335 25.978 128.519 25.378 128.375 24.154H124.679C124.799 26.866 127.055 28.522 130.655 28.522Z" fill="white"></path><path d="M141.561 28.498C143.265 28.498 144.345 27.826 145.233 26.626H145.305V28.138H149.049V15.85H145.137V22.714C145.137 24.178 144.321 25.186 142.977 25.186C141.729 25.186 141.129 24.442 141.129 23.098V15.85H137.241V23.914C137.241 26.65 138.729 28.498 141.561 28.498Z" fill="white"></path><path d="M150.75 28.138H154.662V21.25C154.662 19.786 155.382 18.754 156.606 18.754C157.782 18.754 158.334 19.522 158.334 20.842V28.138H162.246V21.25C162.246 19.786 162.942 18.754 164.19 18.754C165.366 18.754 165.918 19.522 165.918 20.842V28.138H169.83V20.146C169.83 17.386 168.438 15.49 165.654 15.49C164.07 15.49 162.75 16.162 161.79 17.65H161.742C161.118 16.33 159.894 15.49 158.286 15.49C156.51 15.49 155.334 16.33 154.566 17.602H154.494V15.85H150.75V28.138Z" fill="white"></path><path fill-rule="evenodd" clip-rule="evenodd" d="M20.6841 40.138C31.7298 40.138 40.6841 31.1837 40.6841 20.138C40.6841 9.09234 31.7298 0.138031 20.6841 0.138031C9.63837 0.138031 0.684082 9.09234 0.684082 20.138C0.684082 31.1837 9.63837 40.138 20.6841 40.138ZM26.9234 9.45487C27.2271 8.37608 26.1802 7.73816 25.2241 8.41933L11.8772 17.9276C10.8403 18.6663 11.0034 20.138 12.1222 20.138H15.6368V20.1108H22.4866L16.9053 22.0801L14.4448 30.8212C14.1411 31.9 15.1879 32.5379 16.1441 31.8567L29.491 22.3485C30.5279 21.6098 30.3647 20.138 29.246 20.138H23.9162L26.9234 9.45487Z" fill="white"></path></g><defs><clipPath id="clip0_160_98142"><rect width="170" height="41" fill="white"></rect></clipPath></defs></svg>