<svg xmlns="http://www.w3.org/2000/svg" width="80" height="80" viewBox="0 0 80 80" fill="none"><g clip-path="url(#clip0_417_56)"><path d="M-1670.21 115V12.8H-1653.41V115H-1670.21ZM-1656.21 115V100.02H-1610.71V115H-1656.21ZM-1596.17 115V12.8H-1579.51V115H-1596.17ZM-1582.31 115V100.44H-1534.43V115H-1582.31ZM-1582.31 70.34V55.78H-1538.35V70.34H-1582.31ZM-1582.31 27.36V12.8H-1535.69V27.36H-1582.31ZM-1495.28 115V24.84H-1478.48V115H-1495.28ZM-1525.52 27.64V12.8H-1448.1V27.64H-1525.52ZM-1442.39 57.04V47.94H-1440.15C-1437.26 47.94 -1434.97 47.4733 -1433.29 46.54C-1431.61 45.6067 -1430.4 44.1133 -1429.65 42.06C-1428.81 39.9133 -1428.39 37.16 -1428.39 33.8V23.44L-1424.75 30.58C-1425.41 30.9533 -1426.29 31.28 -1427.41 31.56C-1428.53 31.7467 -1429.7 31.84 -1430.91 31.84C-1433.71 31.84 -1436.09 31 -1438.05 29.32C-1439.92 27.5467 -1440.85 25.0733 -1440.85 21.9C-1440.85 18.9133 -1439.97 16.44 -1438.19 14.48C-1436.33 12.52 -1433.81 11.54 -1430.63 11.54C-1428.58 11.54 -1426.67 12.0533 -1424.89 13.08C-1423.12 14.0133 -1421.67 15.6933 -1420.55 18.12C-1419.34 20.4533 -1418.73 23.7667 -1418.73 28.06V30.72C-1418.73 37.5333 -1419.62 42.8533 -1421.39 46.68C-1423.17 50.5067 -1425.69 53.2133 -1428.95 54.8C-1432.22 56.2933 -1436.14 57.04 -1440.71 57.04H-1442.39ZM-1370.26 117.52C-1379.03 117.52 -1386.5 116.12 -1392.66 113.32C-1398.72 110.427 -1403.34 106.507 -1406.52 101.56C-1409.69 96.52 -1411.28 90.8267 -1411.28 84.48H-1394.76C-1394.76 87.3733 -1393.96 90.22 -1392.38 93.02C-1390.79 95.82 -1388.22 98.1533 -1384.68 100.02C-1381.13 101.793 -1376.32 102.68 -1370.26 102.68C-1364.75 102.68 -1360.22 101.887 -1356.68 100.3C-1353.04 98.7133 -1350.38 96.6133 -1348.7 94C-1346.92 91.3867 -1346.04 88.4933 -1346.04 85.32C-1346.04 81.4 -1347.72 78.2267 -1351.08 75.8C-1354.44 73.28 -1359.48 71.74 -1366.2 71.18L-1376.42 70.2C-1385.84 69.4533 -1393.36 66.56 -1398.96 61.52C-1404.56 56.3867 -1407.36 49.6667 -1407.36 41.36C-1407.36 35.0133 -1405.86 29.5067 -1402.88 24.84C-1399.8 20.1733 -1395.5 16.5333 -1390 13.92C-1384.49 11.2133 -1378.1 9.85999 -1370.82 9.85999C-1363.35 9.85999 -1356.86 11.2133 -1351.36 13.92C-1345.85 16.5333 -1341.6 20.2667 -1338.62 25.12C-1335.54 29.88 -1334 35.5733 -1334 42.2H-1350.52C-1350.52 39.2133 -1351.26 36.4133 -1352.76 33.8C-1354.16 31.0933 -1356.35 28.9 -1359.34 27.22C-1362.32 25.54 -1366.15 24.7 -1370.82 24.7C-1375.3 24.7 -1379.03 25.4933 -1382.02 27.08C-1384.91 28.6667 -1387.1 30.72 -1388.6 33.24C-1390.09 35.76 -1390.84 38.4667 -1390.84 41.36C-1390.84 44.8133 -1389.53 47.8933 -1386.92 50.6C-1384.3 53.2133 -1380.29 54.7533 -1374.88 55.22L-1364.8 56.06C-1357.61 56.62 -1351.4 58.16 -1346.18 60.68C-1340.86 63.1067 -1336.75 66.3733 -1333.86 70.48C-1330.87 74.5867 -1329.38 79.5333 -1329.38 85.32C-1329.38 91.6667 -1331.1 97.2667 -1334.56 102.12C-1337.92 106.973 -1342.68 110.753 -1348.84 113.46C-1354.9 116.167 -1362.04 117.52 -1370.26 117.52ZM-1238.38 115L-1265.12 12.8H-1247.76L-1225.22 103.94L-1231.24 100.58H-1215.98L-1222.56 103.94L-1204.5 16.86H-1189.66L-1211.08 115H-1238.38ZM-1177.06 115L-1200.58 16.86H-1185.04L-1164.46 103.94L-1170.9 100.58H-1155.64L-1161.94 103.94L-1141.92 12.8H-1125.4L-1149.48 115H-1177.06ZM-1065.47 117.52C-1074.71 117.52 -1082.69 115.933 -1089.41 112.76C-1096.04 109.493 -1101.54 105.2 -1105.93 99.88C-1110.32 94.56 -1113.58 88.8667 -1115.73 82.8C-1117.78 76.64 -1118.81 70.76 -1118.81 65.16V62.08C-1118.81 55.92 -1117.74 49.76 -1115.59 43.6C-1113.35 37.44 -1110.04 31.84 -1105.65 26.8C-1101.17 21.6667 -1095.62 17.56 -1088.99 14.48C-1082.27 11.4 -1074.43 9.85999 -1065.47 9.85999C-1056.51 9.85999 -1048.72 11.4 -1042.09 14.48C-1035.46 17.56 -1029.91 21.6667 -1025.43 26.8C-1020.95 31.84 -1017.64 37.44 -1015.49 43.6C-1013.25 49.76 -1012.13 55.92 -1012.13 62.08V65.16C-1012.13 70.76 -1013.2 76.64 -1015.35 82.8C-1017.5 88.8667 -1020.76 94.56 -1025.15 99.88C-1029.44 105.2 -1034.95 109.493 -1041.67 112.76C-1048.39 115.933 -1056.32 117.52 -1065.47 117.52ZM-1065.47 101.98C-1059.87 101.98 -1054.83 100.953 -1050.35 98.9C-1045.87 96.8467 -1042.04 94.0467 -1038.87 90.5C-1035.7 86.9533 -1033.32 82.8933 -1031.73 78.32C-1030.05 73.7467 -1029.21 68.8933 -1029.21 63.76C-1029.21 58.3467 -1030.05 53.3533 -1031.73 48.78C-1033.41 44.1133 -1035.84 40.0533 -1039.01 36.6C-1042.09 33.0533 -1045.87 30.3 -1050.35 28.34C-1054.83 26.38 -1059.87 25.4 -1065.47 25.4C-1071.07 25.4 -1076.11 26.38 -1080.59 28.34C-1085.07 30.3 -1088.9 33.0533 -1092.07 36.6C-1095.24 40.0533 -1097.67 44.1133 -1099.35 48.78C-1100.94 53.3533 -1101.73 58.3467 -1101.73 63.76C-1101.73 68.8933 -1100.94 73.7467 -1099.35 78.32C-1097.67 82.8933 -1095.24 86.9533 -1092.07 90.5C-1088.9 94.0467 -1085.07 96.8467 -1080.59 98.9C-1076.11 100.953 -1071.07 101.98 -1065.47 101.98ZM-994.038 115V12.1H-977.238V115H-994.038ZM-931.318 115L-963.798 70.06H-944.758L-911.298 115H-931.318ZM-982.698 79.44V65.3H-956.098C-952.085 65.3 -948.632 64.5067 -945.738 62.92C-942.845 61.24 -940.652 58.9533 -939.158 56.06C-937.572 53.1667 -936.778 49.8067 -936.778 45.98C-936.778 42.2467 -937.572 38.9333 -939.158 36.04C-940.652 33.1467 -942.845 30.86 -945.738 29.18C-948.632 27.5 -952.085 26.66 -956.098 26.66H-982.698V12.1H-958.338C-950.498 12.1 -943.685 13.3133 -937.898 15.74C-932.112 18.0733 -927.632 21.62 -924.458 26.38C-921.285 31.14 -919.698 37.2533 -919.698 44.72V46.96C-919.698 54.4267 -921.332 60.54 -924.598 65.3C-927.772 70.06 -932.252 73.6067 -938.038 75.94C-943.732 78.2733 -950.498 79.44 -958.338 79.44H-982.698ZM-832.064 115L-871.544 67.26H-886.244L-840.324 12.8H-821.144L-862.724 61.94L-863.704 52.14L-811.484 115H-832.064ZM-897.444 115V12.8H-880.644V115H-897.444ZM-753.551 115V24.84H-736.751V115H-753.551ZM-783.791 27.64V12.8H-706.371V27.64H-783.791ZM-648.26 117.52C-657.5 117.52 -665.48 115.933 -672.2 112.76C-678.827 109.493 -684.333 105.2 -688.72 99.88C-693.107 94.56 -696.373 88.8667 -698.52 82.8C-700.573 76.64 -701.6 70.76 -701.6 65.16V62.08C-701.6 55.92 -700.527 49.76 -698.38 43.6C-696.14 37.44 -692.827 31.84 -688.44 26.8C-683.96 21.6667 -678.407 17.56 -671.78 14.48C-665.06 11.4 -657.22 9.85999 -648.26 9.85999C-639.3 9.85999 -631.507 11.4 -624.88 14.48C-618.253 17.56 -612.7 21.6667 -608.22 26.8C-603.74 31.84 -600.427 37.44 -598.28 43.6C-596.04 49.76 -594.92 55.92 -594.92 62.08V65.16C-594.92 70.76 -595.993 76.64 -598.14 82.8C-600.287 88.8667 -603.553 94.56 -607.94 99.88C-612.233 105.2 -617.74 109.493 -624.46 112.76C-631.18 115.933 -639.113 117.52 -648.26 117.52ZM-648.26 101.98C-642.66 101.98 -637.62 100.953 -633.14 98.9C-628.66 96.8467 -624.833 94.0467 -621.66 90.5C-618.487 86.9533 -616.107 82.8933 -614.52 78.32C-612.84 73.7467 -612 68.8933 -612 63.76C-612 58.3467 -612.84 53.3533 -614.52 48.78C-616.2 44.1133 -618.627 40.0533 -621.8 36.6C-624.88 33.0533 -628.66 30.3 -633.14 28.34C-637.62 26.38 -642.66 25.4 -648.26 25.4C-653.86 25.4 -658.9 26.38 -663.38 28.34C-667.86 30.3 -671.687 33.0533 -674.86 36.6C-678.033 40.0533 -680.46 44.1133 -682.14 48.78C-683.727 53.3533 -684.52 58.3467 -684.52 63.76C-684.52 68.8933 -683.727 73.7467 -682.14 78.32C-680.46 82.8933 -678.033 86.9533 -674.86 90.5C-671.687 94.0467 -667.86 96.8467 -663.38 98.9C-658.9 100.953 -653.86 101.98 -648.26 101.98ZM-530.207 117.52C-538.607 117.52 -546.074 116.167 -552.607 113.46C-559.141 110.66 -564.694 106.833 -569.267 101.98C-573.841 97.1267 -577.341 91.48 -579.767 85.04C-582.101 78.6 -583.267 71.7867 -583.267 64.6V61.52C-583.267 55.08 -582.147 48.78 -579.907 42.62C-577.667 36.46 -574.401 30.9067 -570.107 25.96C-565.721 21.0133 -560.401 17.0933 -554.147 14.2C-547.801 11.3067 -540.567 9.85999 -532.447 9.85999C-523.767 9.85999 -516.021 11.54 -509.207 14.9C-502.394 18.1667 -496.934 22.74 -492.827 28.62C-488.721 34.4067 -486.341 41.1267 -485.687 48.78H-502.767C-503.327 43.74 -505.054 39.4933 -507.947 36.04C-510.747 32.5867 -514.294 29.9733 -518.587 28.2C-522.787 26.3333 -527.407 25.4 -532.447 25.4C-537.487 25.4 -542.107 26.3333 -546.307 28.2C-550.414 29.9733 -553.961 32.54 -556.947 35.9C-559.934 39.1667 -562.221 43.1333 -563.807 47.8C-565.394 52.3733 -566.187 57.5067 -566.187 63.2C-566.187 69.5467 -565.347 75.1467 -563.667 80C-561.894 84.8533 -559.421 88.96 -556.247 92.32C-553.074 95.5867 -549.294 98.1067 -544.907 99.88C-540.427 101.56 -535.527 102.4 -530.207 102.4C-522.834 102.4 -516.394 100.907 -510.887 97.92C-505.287 94.84 -501.087 90.8733 -498.287 86.02L-502.627 102.4V73.98H-486.947V97.5C-491.521 103.847 -497.494 108.793 -504.867 112.34C-512.147 115.793 -520.594 117.52 -530.207 117.52ZM-533.707 77.34V64.18H-478.407V77.34H-533.707ZM-463.143 115V12.8H-446.483V115H-463.143ZM-449.283 115V100.44H-401.403V115H-449.283ZM-449.283 70.34V55.78H-405.323V70.34H-449.283ZM-449.283 27.36V12.8H-402.663V27.36H-449.283ZM-362.251 115V24.84H-345.451V115H-362.251ZM-392.491 27.64V12.8H-315.071V27.64H-392.491ZM-232.672 115V12.8H-215.872V115H-232.672ZM-300.852 115V12.8H-284.052V115H-300.852ZM-287.272 71.46V56.48H-229.452V71.46H-287.272ZM-191.27 115V12.8H-174.61V115H-191.27ZM-177.41 115V100.44H-129.529V115H-177.41ZM-177.41 70.34V55.78H-133.449V70.34H-177.41ZM-177.41 27.36V12.8H-130.789V27.36H-177.41ZM-110.398 115V12.1H-93.5976V115H-110.398ZM-47.6776 115L-80.1576 70.06H-61.1176L-27.6576 115H-47.6776ZM-99.0576 79.44V65.3H-72.4576C-68.4442 65.3 -64.9909 64.5067 -62.0976 62.92C-59.2042 61.24 -57.0109 58.9533 -55.5176 56.06C-53.9309 53.1667 -53.1375 49.8067 -53.1375 45.98C-53.1375 42.2467 -53.9309 38.9333 -55.5176 36.04C-57.0109 33.1467 -59.2042 30.86 -62.0976 29.18C-64.9909 27.5 -68.4442 26.66 -72.4576 26.66H-99.0576V12.1H-74.6976C-66.8576 12.1 -60.0442 13.3133 -54.2576 15.74C-48.4709 18.0733 -43.9909 21.62 -40.8175 26.38C-37.6442 31.14 -36.0576 37.2533 -36.0576 44.72V46.96C-36.0576 54.4267 -37.6909 60.54 -40.9575 65.3C-44.1309 70.06 -48.6109 73.6067 -54.3976 75.94C-60.0909 78.2733 -66.8576 79.44 -74.6976 79.44H-99.0576ZM66.932 63.06L45.652 47.8V33.52L66.932 18.26L73.932 30.44L56.012 38.14V43.18L73.932 50.74L66.932 63.06ZM45.792 5.66L43.272 31.84L30.812 38.98L7.01204 28.06L14.012 16.02L29.692 27.64L34.032 25.12L31.792 5.93999L45.792 5.66ZM7.01204 53.12L30.812 42.2L43.272 49.34L45.792 75.52L31.792 75.38L34.032 56.2L29.692 53.68L14.152 65.3L7.01204 53.12ZM119.438 115V12.8H136.238V115H119.438ZM133.438 115V100.02H178.938V115H133.438ZM193.474 115V12.8H210.134V115H193.474ZM207.334 115V100.44H255.214V115H207.334ZM207.334 70.34V55.78H251.294V70.34H207.334ZM207.334 27.36V12.8H253.954V27.36H207.334ZM294.365 115V24.84H311.165V115H294.365ZM264.125 27.64V12.8H341.545V27.64H264.125ZM347.25 57.04V47.94H349.49C352.384 47.94 354.67 47.4733 356.35 46.54C358.03 45.6067 359.244 44.1133 359.99 42.06C360.83 39.9133 361.25 37.16 361.25 33.8V23.44L364.89 30.58C364.237 30.9533 363.35 31.28 362.23 31.56C361.11 31.7467 359.944 31.84 358.73 31.84C355.93 31.84 353.55 31 351.59 29.32C349.724 27.5467 348.79 25.0733 348.79 21.9C348.79 18.9133 349.677 16.44 351.45 14.48C353.317 12.52 355.837 11.54 359.01 11.54C361.064 11.54 362.977 12.0533 364.75 13.08C366.524 14.0133 367.97 15.6933 369.09 18.12C370.304 20.4533 370.91 23.7667 370.91 28.06V30.72C370.91 37.5333 370.024 42.8533 368.25 46.68C366.477 50.5067 363.957 53.2133 360.69 54.8C357.424 56.2933 353.504 57.04 348.93 57.04H347.25ZM419.386 117.52C410.613 117.52 403.146 116.12 396.986 113.32C390.92 110.427 386.3 106.507 383.126 101.56C379.953 96.52 378.366 90.8267 378.366 84.48H394.886C394.886 87.3733 395.68 90.22 397.266 93.02C398.853 95.82 401.42 98.1533 404.966 100.02C408.513 101.793 413.32 102.68 419.386 102.68C424.893 102.68 429.42 101.887 432.966 100.3C436.606 98.7133 439.266 96.6133 440.946 94C442.72 91.3867 443.606 88.4933 443.606 85.32C443.606 81.4 441.926 78.2267 438.566 75.8C435.206 73.28 430.166 71.74 423.446 71.18L413.226 70.2C403.8 69.4533 396.286 66.56 390.686 61.52C385.086 56.3867 382.286 49.6667 382.286 41.36C382.286 35.0133 383.78 29.5067 386.766 24.84C389.846 20.1733 394.14 16.5333 399.646 13.92C405.153 11.2133 411.546 9.85999 418.826 9.85999C426.293 9.85999 432.78 11.2133 438.286 13.92C443.793 16.5333 448.04 20.2667 451.026 25.12C454.106 29.88 455.646 35.5733 455.646 42.2H439.126C439.126 39.2133 438.38 36.4133 436.886 33.8C435.486 31.0933 433.293 28.9 430.306 27.22C427.32 25.54 423.493 24.7 418.826 24.7C414.346 24.7 410.613 25.4933 407.626 27.08C404.733 28.6667 402.54 30.72 401.046 33.24C399.553 35.76 398.806 38.4667 398.806 41.36C398.806 44.8133 400.113 47.8933 402.726 50.6C405.34 53.2133 409.353 54.7533 414.766 55.22L424.846 56.06C432.033 56.62 438.24 58.16 443.466 60.68C448.786 63.1067 452.893 66.3733 455.786 70.48C458.773 74.5867 460.266 79.5333 460.266 85.32C460.266 91.6667 458.54 97.2667 455.086 102.12C451.726 106.973 446.966 110.753 440.806 113.46C434.74 116.167 427.6 117.52 419.386 117.52ZM551.267 115L524.527 12.8H541.887L564.427 103.94L558.407 100.58H573.667L567.087 103.94L585.147 16.86H599.987L578.567 115H551.267ZM612.587 115L589.067 16.86H604.607L625.187 103.94L618.747 100.58H634.007L627.707 103.94L647.727 12.8H664.247L640.167 115H612.587ZM724.172 117.52C714.932 117.52 706.952 115.933 700.232 112.76C693.605 109.493 688.098 105.2 683.712 99.88C679.325 94.56 676.058 88.8667 673.912 82.8C671.858 76.64 670.832 70.76 670.832 65.16V62.08C670.832 55.92 671.905 49.76 674.052 43.6C676.292 37.44 679.605 31.84 683.992 26.8C688.472 21.6667 694.025 17.56 700.652 14.48C707.372 11.4 715.212 9.85999 724.172 9.85999C733.132 9.85999 740.925 11.4 747.552 14.48C754.178 17.56 759.732 21.6667 764.212 26.8C768.692 31.84 772.005 37.44 774.152 43.6C776.392 49.76 777.512 55.92 777.512 62.08V65.16C777.512 70.76 776.438 76.64 774.292 82.8C772.145 88.8667 768.878 94.56 764.492 99.88C760.198 105.2 754.692 109.493 747.972 112.76C741.252 115.933 733.318 117.52 724.172 117.52ZM724.172 101.98C729.772 101.98 734.812 100.953 739.292 98.9C743.772 96.8467 747.598 94.0467 750.772 90.5C753.945 86.9533 756.325 82.8933 757.912 78.32C759.592 73.7467 760.432 68.8933 760.432 63.76C760.432 58.3467 759.592 53.3533 757.912 48.78C756.232 44.1133 753.805 40.0533 750.632 36.6C747.552 33.0533 743.772 30.3 739.292 28.34C734.812 26.38 729.772 25.4 724.172 25.4C718.572 25.4 713.532 26.38 709.052 28.34C704.572 30.3 700.745 33.0533 697.572 36.6C694.398 40.0533 691.972 44.1133 690.292 48.78C688.705 53.3533 687.912 58.3467 687.912 63.76C687.912 68.8933 688.705 73.7467 690.292 78.32C691.972 82.8933 694.398 86.9533 697.572 90.5C700.745 94.0467 704.572 96.8467 709.052 98.9C713.532 100.953 718.572 101.98 724.172 101.98ZM795.605 115V12.1H812.405V115H795.605ZM858.325 115L825.845 70.06H844.885L878.345 115H858.325ZM806.945 79.44V65.3H833.545C837.558 65.3 841.011 64.5067 843.905 62.92C846.798 61.24 848.991 58.9533 850.485 56.06C852.071 53.1667 852.865 49.8067 852.865 45.98C852.865 42.2467 852.071 38.9333 850.485 36.04C848.991 33.1467 846.798 30.86 843.905 29.18C841.011 27.5 837.558 26.66 833.545 26.66H806.945V12.1H831.305C839.145 12.1 845.958 13.3133 851.745 15.74C857.531 18.0733 862.011 21.62 865.185 26.38C868.358 31.14 869.945 37.2533 869.945 44.72V46.96C869.945 54.4267 868.311 60.54 865.045 65.3C861.871 70.06 857.391 73.6067 851.605 75.94C845.911 78.2733 839.145 79.44 831.305 79.44H806.945ZM957.579 115L918.099 67.26H903.399L949.319 12.8H968.499L926.919 61.94L925.939 52.14L978.159 115H957.579ZM892.199 115V12.8H908.999V115H892.199ZM1036.09 115V24.84H1052.89V115H1036.09ZM1005.85 27.64V12.8H1083.27V27.64H1005.85ZM1141.38 117.52C1132.14 117.52 1124.16 115.933 1117.44 112.76C1110.82 109.493 1105.31 105.2 1100.92 99.88C1096.54 94.56 1093.27 88.8667 1091.12 82.8C1089.07 76.64 1088.04 70.76 1088.04 65.16V62.08C1088.04 55.92 1089.12 49.76 1091.26 43.6C1093.5 37.44 1096.82 31.84 1101.2 26.8C1105.68 21.6667 1111.24 17.56 1117.86 14.48C1124.58 11.4 1132.42 9.85999 1141.38 9.85999C1150.34 9.85999 1158.14 11.4 1164.76 14.48C1171.39 17.56 1176.94 21.6667 1181.42 26.8C1185.9 31.84 1189.22 37.44 1191.36 43.6C1193.6 49.76 1194.72 55.92 1194.72 62.08V65.16C1194.72 70.76 1193.65 76.64 1191.5 82.8C1189.36 88.8667 1186.09 94.56 1181.7 99.88C1177.41 105.2 1171.9 109.493 1165.18 112.76C1158.46 115.933 1150.53 117.52 1141.38 117.52ZM1141.38 101.98C1146.98 101.98 1152.02 100.953 1156.5 98.9C1160.98 96.8467 1164.81 94.0467 1167.98 90.5C1171.16 86.9533 1173.54 82.8933 1175.12 78.32C1176.8 73.7467 1177.64 68.8933 1177.64 63.76C1177.64 58.3467 1176.8 53.3533 1175.12 48.78C1173.44 44.1133 1171.02 40.0533 1167.84 36.6C1164.76 33.0533 1160.98 30.3 1156.5 28.34C1152.02 26.38 1146.98 25.4 1141.38 25.4C1135.78 25.4 1130.74 26.38 1126.26 28.34C1121.78 30.3 1117.96 33.0533 1114.78 36.6C1111.61 40.0533 1109.18 44.1133 1107.5 48.78C1105.92 53.3533 1105.12 58.3467 1105.12 63.76C1105.12 68.8933 1105.92 73.7467 1107.5 78.32C1109.18 82.8933 1111.61 86.9533 1114.78 90.5C1117.96 94.0467 1121.78 96.8467 1126.26 98.9C1130.74 100.953 1135.78 101.98 1141.38 101.98ZM1259.44 117.52C1251.04 117.52 1243.57 116.167 1237.04 113.46C1230.5 110.66 1224.95 106.833 1220.38 101.98C1215.8 97.1267 1212.3 91.48 1209.88 85.04C1207.54 78.6 1206.38 71.7867 1206.38 64.6V61.52C1206.38 55.08 1207.5 48.78 1209.74 42.62C1211.98 36.46 1215.24 30.9067 1219.54 25.96C1223.92 21.0133 1229.24 17.0933 1235.5 14.2C1241.84 11.3067 1249.08 9.85999 1257.2 9.85999C1265.88 9.85999 1273.62 11.54 1280.44 14.9C1287.25 18.1667 1292.71 22.74 1296.82 28.62C1300.92 34.4067 1303.3 41.1267 1303.96 48.78H1286.88C1286.32 43.74 1284.59 39.4933 1281.7 36.04C1278.9 32.5867 1275.35 29.9733 1271.06 28.2C1266.86 26.3333 1262.24 25.4 1257.2 25.4C1252.16 25.4 1247.54 26.3333 1243.34 28.2C1239.23 29.9733 1235.68 32.54 1232.7 35.9C1229.71 39.1667 1227.42 43.1333 1225.84 47.8C1224.25 52.3733 1223.46 57.5067 1223.46 63.2C1223.46 69.5467 1224.3 75.1467 1225.98 80C1227.75 84.8533 1230.22 88.96 1233.4 92.32C1236.57 95.5867 1240.35 98.1067 1244.74 99.88C1249.22 101.56 1254.12 102.4 1259.44 102.4C1266.81 102.4 1273.25 100.907 1278.76 97.92C1284.36 94.84 1288.56 90.8733 1291.36 86.02L1287.02 102.4V73.98H1302.7V97.5C1298.12 103.847 1292.15 108.793 1284.78 112.34C1277.5 115.793 1269.05 117.52 1259.44 117.52ZM1255.94 77.34V64.18H1311.24V77.34H1255.94ZM1326.5 115V12.8H1343.16V115H1326.5ZM1340.36 115V100.44H1388.24V115H1340.36ZM1340.36 70.34V55.78H1384.32V70.34H1340.36ZM1340.36 27.36V12.8H1386.98V27.36H1340.36ZM1427.39 115V24.84H1444.19V115H1427.39ZM1397.15 27.64V12.8H1474.57V27.64H1397.15ZM1556.97 115V12.8H1573.77V115H1556.97ZM1488.79 115V12.8H1505.59V115H1488.79ZM1502.37 71.46V56.48H1560.19V71.46H1502.37ZM1598.37 115V12.8H1615.03V115H1598.37ZM1612.23 115V100.44H1660.11V115H1612.23ZM1612.23 70.34V55.78H1656.19V70.34H1612.23ZM1612.23 27.36V12.8H1658.85V27.36H1612.23ZM1679.25 115V12.1H1696.05V115H1679.25ZM1741.97 115L1709.49 70.06H1728.53L1761.99 115H1741.97ZM1690.59 79.44V65.3H1717.19C1721.2 65.3 1724.65 64.5067 1727.55 62.92C1730.44 61.24 1732.63 58.9533 1734.13 56.06C1735.71 53.1667 1736.51 49.8067 1736.51 45.98C1736.51 42.2467 1735.71 38.9333 1734.13 36.04C1732.63 33.1467 1730.44 30.86 1727.55 29.18C1724.65 27.5 1721.2 26.66 1717.19 26.66H1690.59V12.1H1714.95C1722.79 12.1 1729.6 13.3133 1735.39 15.74C1741.17 18.0733 1745.65 21.62 1748.83 26.38C1752 31.14 1753.59 37.2533 1753.59 44.72V46.96C1753.59 54.4267 1751.95 60.54 1748.69 65.3C1745.51 70.06 1741.03 73.6067 1735.25 75.94C1729.55 78.2733 1722.79 79.44 1714.95 79.44H1690.59ZM1856.57 63.06L1835.29 47.8V33.52L1856.57 18.26L1863.57 30.44L1845.65 38.14V43.18L1863.57 50.74L1856.57 63.06ZM1835.43 5.66L1832.91 31.84L1820.45 38.98L1796.65 28.06L1803.65 16.02L1819.33 27.64L1823.67 25.12L1821.43 5.93999L1835.43 5.66ZM1796.65 53.12L1820.45 42.2L1832.91 49.34L1835.43 75.52L1821.43 75.38L1823.67 56.2L1819.33 53.68L1803.79 65.3L1796.65 53.12Z" fill="white"></path></g><defs><clipPath id="clip0_417_56"><rect width="80" height="80" fill="white"></rect></clipPath></defs></svg>