<svg width="159" height="50" viewBox="0 0 159 50" fill="none" xmlns="http://www.w3.org/2000/svg">
<circle cx="25" cy="25" r="25" fill="url(#paint0_linear_178_60)"/>
<path fill-rule="evenodd" clip-rule="evenodd" d="M12.9914 16.4142L23.0082 33.5858L25.0005 37L34.4679 20.7677L32.8878 18.0592L31.9281 16.4142L29.9367 13H25.953L27.9453 16.4142L30.4851 20.7677L25.0005 30.1707L16.9751 16.4142H20.3918L24.7717 23.922L26.764 20.5078L24.3755 16.4142L22.3841 13H18.4004H14.9837H11L12.9914 16.4142Z" fill="white"/>
<path fill-rule="evenodd" clip-rule="evenodd" d="M35.0164 13H33.2529L34.1351 14.5111L35.2443 16.4142L36.1266 17.9262L37.0088 16.4142L39.0002 13H35.0164Z" fill="white"/>
<path d="M63.968 34V16.48H70.424L77.024 30.808H77.84L77.36 31.24V16.48H81.056V34H74.552L67.952 19.672H67.136L67.616 19.24V34H63.968ZM90.7994 34.456C89.6794 34.456 88.6874 34.264 87.8234 33.88C86.9754 33.496 86.2634 32.984 85.6874 32.344C85.1274 31.688 84.6954 30.96 84.3914 30.16C84.1034 29.344 83.9594 28.512 83.9594 27.664V27.184C83.9594 26.304 84.1034 25.464 84.3914 24.664C84.6954 23.848 85.1274 23.12 85.6874 22.48C86.2474 21.84 86.9434 21.336 87.7754 20.968C88.6234 20.584 89.5834 20.392 90.6554 20.392C92.0634 20.392 93.2474 20.712 94.2074 21.352C95.1834 21.976 95.9274 22.8 96.4394 23.824C96.9514 24.832 97.2074 25.936 97.2074 27.136V28.432H85.5674V26.248H94.8794L93.6314 27.256C93.6314 26.472 93.5194 25.8 93.2954 25.24C93.0714 24.68 92.7354 24.256 92.2874 23.968C91.8554 23.664 91.3114 23.512 90.6554 23.512C89.9834 23.512 89.4154 23.664 88.9514 23.968C88.4874 24.272 88.1354 24.72 87.8954 25.312C87.6554 25.888 87.5354 26.6 87.5354 27.448C87.5354 28.232 87.6474 28.92 87.8714 29.512C88.0954 30.088 88.4474 30.536 88.9274 30.856C89.4074 31.176 90.0314 31.336 90.7994 31.336C91.5034 31.336 92.0794 31.2 92.5274 30.928C92.9754 30.656 93.2794 30.32 93.4394 29.92H96.9674C96.7754 30.8 96.3994 31.584 95.8394 32.272C95.2794 32.96 94.5754 33.496 93.7274 33.88C92.8794 34.264 91.9034 34.456 90.7994 34.456ZM105.728 34.168C104.4 34.168 103.328 34.008 102.512 33.688C101.696 33.352 101.096 32.8 100.712 32.032C100.344 31.248 100.16 30.192 100.16 28.864V17.296H103.736V29.008C103.736 29.632 103.896 30.112 104.216 30.448C104.552 30.768 105.024 30.928 105.632 30.928H107.576V34.168H105.728ZM98.168 23.656V20.848H107.576V23.656H98.168ZM109.294 34V31.312L115.462 23.92V24.304L114.886 23.584L115.318 23.8H109.318V20.848H119.662V23.536L113.494 30.928V30.568L114.07 31.288L113.638 31.048H119.854V34H109.294ZM128.473 34.456C127.321 34.456 126.297 34.28 125.401 33.928C124.505 33.56 123.745 33.064 123.121 32.44C122.513 31.816 122.049 31.104 121.729 30.304C121.409 29.488 121.249 28.632 121.249 27.736V27.184C121.249 26.272 121.409 25.408 121.729 24.592C122.065 23.76 122.545 23.032 123.169 22.408C123.809 21.784 124.577 21.296 125.473 20.944C126.369 20.576 127.369 20.392 128.473 20.392C129.609 20.392 130.617 20.576 131.497 20.944C132.393 21.296 133.153 21.784 133.777 22.408C134.401 23.032 134.881 23.76 135.217 24.592C135.553 25.408 135.721 26.272 135.721 27.184V27.736C135.721 28.632 135.561 29.488 135.241 30.304C134.921 31.104 134.449 31.816 133.825 32.44C133.217 33.064 132.465 33.56 131.569 33.928C130.673 34.28 129.641 34.456 128.473 34.456ZM128.473 31.216C129.225 31.216 129.849 31.056 130.345 30.736C130.841 30.416 131.217 29.968 131.473 29.392C131.745 28.816 131.881 28.176 131.881 27.472C131.881 26.72 131.745 26.064 131.473 25.504C131.201 24.928 130.809 24.472 130.297 24.136C129.801 23.8 129.193 23.632 128.473 23.632C127.769 23.632 127.161 23.8 126.648 24.136C126.137 24.472 125.745 24.928 125.473 25.504C125.217 26.064 125.089 26.72 125.089 27.472C125.089 28.176 125.217 28.816 125.473 29.392C125.729 29.968 126.113 30.416 126.625 30.736C127.137 31.056 127.753 31.216 128.473 31.216ZM138.4 34V20.848H141.448V26.488H141.232C141.232 25.144 141.4 24.024 141.736 23.128C142.088 22.232 142.616 21.56 143.32 21.112C144.024 20.664 144.88 20.44 145.888 20.44H146.056C147.592 20.44 148.76 20.944 149.56 21.952C150.376 22.944 150.784 24.456 150.784 26.488V34H146.944V26.272C146.944 25.568 146.736 24.992 146.32 24.544C145.904 24.096 145.344 23.872 144.64 23.872C143.92 23.872 143.336 24.104 142.888 24.568C142.456 25.016 142.24 25.608 142.24 26.344V34H138.4Z" fill="white"/>
<path d="M153.457 34V29.704H157.681V34H153.457Z" fill="#3F82FB"/>
<defs>
<linearGradient id="paint0_linear_178_60" x1="0" y1="25" x2="50" y2="25" gradientUnits="userSpaceOnUse">
<stop stop-color="#0F2453"/>
<stop offset="1" stop-color="#3F82FB"/>
</linearGradient>
</defs>
</svg>
